<svg width="512" height="512" viewBox="0 0 512 512" fill="none" xmlns="http://www.w3.org/2000/svg">
  <rect width="512" height="512" rx="96" fill="#09142D"/>
  <path d="M256 64C186.412 64 130 120.412 130 190C130 286 256 448 256 448C256 448 382 286 382 190C382 120.412 325.588 64 256 64Z" fill="#2DB84B"/>
  <path d="M220 138H272C316 138 340 162 340 199C340 236 314 260 272 260H246V326H220V138Z" fill="white"/>
  <path d="M246 162V236H271C298 236 314 222 314 199C314 176 299 162 271 162H246Z" fill="#09142D"/>
</svg>
